<svg width="52" height="52" viewBox="0 0 52 52" fill="none" xmlns="http://www.w3.org/2000/svg">
<g clip-path="url(#clip0_70_3819)">
<path d="M51.0636 23.508L45.06 12.4921H49.4112C50.1823 12.4921 50.8433 11.8312 50.8433 11.0601C50.8433 10.289 50.1823 9.62803 49.4112 9.62803H30.9597C30.1886 6.87407 27.2694 5.27677 24.5155 6.04788C22.7529 6.54359 21.431 7.92057 20.9353 9.62803H2.53887C1.76777 9.62803 1.10682 10.289 1.10682 11.0601C1.10682 11.8312 1.76777 12.4921 2.53887 12.4921H6.89013L0.8865 23.508C0.335708 23.7283 -0.0498462 24.2791 0.00523296 24.885C0.00523296 30.0073 4.19125 34.1933 9.31361 34.1933C14.436 34.1933 18.622 30.0073 18.622 24.885C18.622 24.2791 18.2364 23.7834 17.7407 23.5631L11.682 12.4371H21.0455C21.5412 14.1445 22.8631 15.5215 24.6256 16.0172V36.727C20.7701 37.3879 17.961 40.8028 17.961 44.7134C17.961 45.4846 18.622 46.1455 19.3931 46.1455H32.7773C33.5484 46.1455 34.2094 45.4846 34.2094 44.7134C34.2094 40.8028 31.4004 37.443 27.5448 36.727V16.0723C29.2523 15.5766 30.6292 14.2547 31.125 12.4921H40.4884L34.3195 23.508C33.7137 23.7283 33.3281 24.2791 33.3832 24.885C33.3832 30.0073 37.5692 34.1933 42.6916 34.1933C47.8139 34.1933 52 30.0073 52 24.885C52 24.2791 51.6695 23.7283 51.0636 23.508ZM14.436 23.3978H4.19125L9.31361 13.9793L14.436 23.3978ZM37.6243 23.3978L42.7467 13.9793L47.869 23.3978H37.6243Z" fill="#3E89F4"/>
</g>
<defs>
<clipPath id="clip0_70_3819">
<rect width="52" height="52" fill="white"/>
</clipPath>
</defs>
</svg>
