<svg width="52" height="52" viewBox="0 0 52 52" fill="none" xmlns="http://www.w3.org/2000/svg">
<g clip-path="url(#clip0_70_3826)">
<path d="M38.9046 15.9885C37.3507 15.3656 36.9018 14.9889 36.9018 14.3087C36.9018 13.7644 37.314 13.1285 38.4764 13.1285C39.5046 13.1285 40.2931 13.5339 40.3001 13.5374C40.3831 13.5816 40.4762 13.6052 40.5683 13.6052C40.7933 13.6052 40.9924 13.4691 41.0749 13.2583L41.3573 12.5364C41.4556 12.2733 41.3064 12.0441 41.1162 11.9618C40.4832 11.6863 39.246 11.473 39.2334 11.4708C39.2135 11.4673 39.1442 11.4525 39.1442 11.3715L39.1402 10.3241C39.1402 10.0087 38.8769 9.75195 38.5535 9.75195H38.0469C37.7238 9.75195 37.4606 10.0086 37.4606 10.3243L37.4619 11.4254C37.4619 11.5098 37.3705 11.5465 37.3371 11.5542C35.7754 11.9262 34.7995 13.0701 34.7995 14.5131C34.7995 16.3118 36.2863 17.1247 37.8918 17.7348C39.1753 18.2387 39.6988 18.7496 39.6988 19.499C39.6988 20.3145 38.9573 20.884 37.895 20.884C36.9879 20.884 35.7603 20.309 35.7482 20.3032C35.6696 20.266 35.5864 20.2472 35.5008 20.2472C35.2671 20.2472 35.0637 20.3885 34.9824 20.6073L34.7127 21.3375C34.6168 21.6101 34.7644 21.8314 34.9533 21.9299C35.7073 22.3225 37.1662 22.5526 37.2311 22.5627C37.2485 22.5652 37.3373 22.5965 37.3373 22.6777V23.7739C37.3373 24.0893 37.6007 24.3461 37.9242 24.3461H38.4477C38.7713 24.3461 39.0347 24.0895 39.0347 23.7739V22.6202C39.0347 22.5123 39.1143 22.5028 39.1307 22.4988C40.7943 22.1251 41.8191 20.9079 41.8191 19.3795C41.8187 17.8097 40.9469 16.7953 38.9046 15.9885Z" fill="#3E89F4"/>
<path d="M38.2503 3.29883C30.6559 3.29883 24.5 9.45521 24.5 17.0491C24.5 24.6431 30.6559 30.7996 38.2503 30.7996C45.8443 30.7996 52.0004 24.6431 52.0004 17.0491C52.0004 9.45521 45.8443 3.29883 38.2503 3.29883ZM38.2503 27.6129C32.4159 27.6129 27.6866 22.8832 27.6866 17.0492C27.6866 11.2153 32.4159 6.4857 38.2503 6.4857C44.0844 6.4857 48.8135 11.2153 48.8135 17.0492C48.8135 22.8832 44.0844 27.6129 38.2503 27.6129Z" fill="#3E89F4"/>
<path d="M49.2064 37.4626C46.2825 39.0764 42.2609 40.5686 38.2504 41.1976C34.6821 41.7572 27.9693 40.4076 27.9693 38.8138C27.9693 38.2098 33.8567 40.302 37.418 39.3518C40.149 38.6232 39.7613 36.0686 38.2759 35.7317C36.7991 35.3965 28.1472 32.2269 24.4516 32.1176C22.7107 32.0662 18.4128 32.723 16.333 33.0618C15.6206 33.1777 15.1739 33.1649 15.1293 33.8467C14.9224 37.0154 14.5145 43.4953 14.2921 46.88C14.2875 46.9515 14.3868 47.9133 15.1805 47.2364C16.0491 46.4957 17.2675 45.6747 18.3944 45.9303C20.1624 46.3314 35.4579 49.1336 37.5677 48.6432C40.5859 47.9416 49.1298 42.8783 50.7679 41.3045C53.3069 38.8646 51.3332 36.2888 49.2064 37.4626Z" fill="#3E89F4"/>
<path d="M10.9082 32.9382L2.89525 32.5434C2.27661 32.5129 1.64478 32.9791 1.49103 33.579L0.0340489 46.8071C-0.119549 47.4071 0.261222 47.9177 0.880158 47.9416L9.76042 47.9408C10.3795 47.9646 10.9244 47.4789 10.9719 46.8613L11.9471 34.1165C11.9943 33.499 11.5268 32.9687 10.9082 32.9382ZM6.19087 46.1883C4.96722 46.1883 3.97542 45.1964 3.97542 43.9728C3.97542 42.7492 4.96736 41.7574 6.19087 41.7574C7.41438 41.7574 8.40632 42.7493 8.40632 43.9728C8.40632 45.1965 7.41453 46.1883 6.19087 46.1883Z" fill="#3E89F4"/>
</g>
<defs>
<clipPath id="clip0_70_3826">
<rect width="52" height="52" fill="white"/>
</clipPath>
</defs>
</svg>
