<svg width="28" height="28" viewBox="0 0 28 28" fill="none" xmlns="http://www.w3.org/2000/svg">
<g clip-path="url(#clip0_2636_924)">
<path d="M3.03417 1.25537C2.97111 1.32277 2.86458 1.46356 2.79337 1.56031C1.46979 3.31548 -0.111973 6.01372 0.00652341 8.61793C0.207642 12.9784 6.09225 18.7739 7.89144 20.4464C9.69118 22.1184 15.9008 27.5643 20.2602 27.4458C20.987 27.4279 21.7572 27.2752 22.5486 26.9914C24.3755 26.3364 26.0247 25.0906 27.0721 24.1736C27.0721 24.1736 27.2977 23.9817 27.3847 23.8893C27.6037 23.6529 27.7771 23.3077 27.9147 22.8343C27.9848 22.5924 28 22.3374 28 22.1668C28 21.9765 27.981 21.608 27.856 21.2726C27.6847 20.8138 27.4885 20.4855 27.2537 20.2648C27.0798 20.1034 23.1492 17.0241 23.1242 17.0067L23.0943 16.9872C22.8813 16.8235 22.659 16.6958 22.4328 16.6072C21.8403 16.3751 21.1843 16.3659 20.5847 16.58C20.2037 16.7165 19.8607 16.942 19.596 17.228L18.2452 18.6738C18.1186 18.8097 17.8832 18.9505 17.8 18.9706C17.7125 18.9869 17.6517 18.9913 17.6125 18.9924L8.54698 10.5677C8.52524 10.547 8.51437 10.5269 8.50839 10.5128C8.51274 10.4997 8.51817 10.4883 8.52089 10.4796C8.55405 10.4122 8.71059 10.1981 8.90627 9.98607L10.2429 8.53911C10.9501 7.77867 11.1256 6.59587 10.6756 5.67345C10.5152 5.34459 10.2956 5.0989 10.194 4.98312L10.1412 4.9179C10.1152 4.888 6.80595 1.25646 6.65756 1.12002C6.28956 0.778124 5.71013 0.593311 4.88663 0.554176C4.42895 0.532433 3.85495 0.667236 3.52174 0.874334C3.30758 1.00859 3.14723 1.13361 3.03417 1.25537ZM5.53075 2.30064C5.71611 2.48872 8.72799 5.7876 8.88562 5.96045L8.99651 6.09471C9.04162 6.14526 9.14762 6.2643 9.20958 6.39041C9.37048 6.72089 9.30742 7.1514 9.04651 7.43242L7.70826 8.88101C7.55172 9.05006 7.17122 9.48274 7.02011 9.84312C6.9201 10.0834 6.87281 10.2926 6.87226 10.5356C6.88857 10.9998 7.08534 11.4325 7.43213 11.7592L16.589 20.2686C16.9374 20.5921 17.444 20.6953 18.0952 20.5752C18.5985 20.4823 19.1437 20.1018 19.4373 19.7876L20.7902 18.339C20.8804 18.2417 21 18.1645 21.1348 18.1156C21.3598 18.0351 21.6164 18.039 21.8382 18.1259C21.9675 18.1765 22.0752 18.2607 22.1105 18.2885C22.1442 18.3145 22.1714 18.3336 22.1958 18.3488C22.5725 18.6407 25.9524 21.2971 26.1356 21.4514C26.1361 21.4525 26.216 21.5422 26.3285 21.8428C26.3443 21.8852 26.3693 22.0102 26.3693 22.1662C26.3693 22.2787 26.3568 22.3521 26.3487 22.3788C26.2639 22.6701 26.1937 22.7723 26.1937 22.7745C26.141 22.8272 26.0312 22.918 26.0127 22.9337C25.0566 23.7703 23.5846 24.8873 21.998 25.4559C21.3707 25.6809 20.7728 25.8016 20.2184 25.8152C17.2402 25.8962 12.3144 22.3293 9.00194 19.2511C5.68893 16.1734 1.77256 11.5211 1.63558 8.54292C1.53557 6.39585 2.93198 4.08516 4.08161 2.55992L4.12564 2.50122C4.15119 2.46643 4.19739 2.4012 4.22131 2.37294C4.26208 2.33434 4.32295 2.29684 4.37133 2.2664C4.44362 2.22944 4.66812 2.17725 4.80836 2.18432C5.28995 2.20769 5.51281 2.29412 5.53075 2.30064Z" fill="#3E89F4"/>
</g>
<defs>
<clipPath id="clip0_2636_924">
<rect width="28" height="28" fill="white" transform="translate(0 28) rotate(-90)"/>
</clipPath>
</defs>
</svg>
